<svg width="52" height="52" viewBox="0 0 52 52" fill="none" xmlns="http://www.w3.org/2000/svg">
<path d="M9.57143 7.25C15.5567 2.61466 19.0687 1.26715 25.5897 1C32.6659 1.24889 36.3607 2.67184 42.5198 7.25C48.6366 13.2461 50.5828 17.3963 51 26.5488C50.2555 35.2526 48.1791 39.1455 42.5198 44.9329C36.6042 49.21 32.8399 50.6034 25.5593 51C18.2231 50.3892 14.8731 48.7201 9.57143 44.9329C3.47597 38.1784 1.58551 34.1552 1 26.5488C1.63099 18.1708 2.97236 13.7796 9.57143 7.25Z" fill="white" stroke="black"/>
<path d="M12.0482 24.0689L36.4786 14.6472C36.9971 14.5557 37.1496 14.5049 37.6071 14.8606C37.8816 15.074 38.0646 15.8058 38.0341 16.0802C36.7226 22.2293 34.0447 34.8993 33.7031 36.3872C33.3615 37.8752 32.0765 37.4341 31.4766 37.0275L25.3462 32.5149C24.4312 33.3991 22.4914 35.253 22.0522 35.5945C21.613 35.936 21.1982 36.001 21.0457 35.9908L21.5337 29.6182L33.1236 19.0379C33.2253 18.9566 33.392 18.7573 33.2456 18.611C33.0992 18.4646 32.7983 18.55 32.6661 18.611L17.9957 27.7888L11.5603 25.8069C11.2959 25.7662 10.7917 25.5629 10.8893 25.0751C10.9869 24.5872 11.7026 24.201 12.0482 24.0689Z" fill="black"/>
</svg>
