<svg width="52" height="52" viewBox="0 0 52 52" fill="none" xmlns="http://www.w3.org/2000/svg">
<path d="M51 27.1446V38.8634C50.8038 40.7709 50.6007 41.841 49.9877 43.7507C49.7975 44.6508 49.5878 45.1303 49.0658 45.9491C48.6331 46.6947 48.4904 47.1933 47.8727 47.7478C47.2272 48.7055 46.553 48.9218 45.577 49.492C44.6025 49.9657 43.9939 50.1408 42.8113 50.3096C40.5219 50.8101 39.2003 50.929 36.8098 51H25.7831H15.2986H12.4425L9.89371 50.3096L6.83876 49.492L4.65148 47.8023L2.86189 45.8583L1.8496 43.2602L1 37.5371V27.1446V15.3169C1.19091 12.8473 1.3945 11.4784 1.93999 9.06686C2.23064 7.86204 2.46715 7.23652 3.02458 6.21439C3.62339 5.17888 4.02064 4.65224 4.95879 3.88881C5.79321 3.13863 6.30304 2.81226 7.2726 2.36265C8.22499 2.01354 8.75636 1.75816 9.83948 1.59956C11.9628 1.2176 13.1859 1.1816 15.2986 1H25.7831H36.9364C38.2163 1.05641 38.924 1.11253 40.154 1.2907C41.3177 1.51853 41.9574 1.66569 43.0644 1.9811C44.1119 2.25565 44.693 2.46105 45.7216 2.88953C46.7775 3.36984 47.3976 3.61148 48.0897 4.45203C48.896 5.28734 49.1206 5.92819 49.5719 6.92297C49.9024 7.94551 50.1403 8.48682 50.3492 9.64826C50.6818 10.85 50.7939 11.5767 50.8735 12.7733C50.9953 13.9728 50.965 14.6578 51 15.8983V27.1446Z" fill="white" stroke="black"/>
<path d="M14.8206 17.6744C15.0822 17.6878 15.3414 17.8585 15.4383 17.9422L15.6745 18.21C15.689 18.3573 16.7464 20.8377 17.2732 22.0595C17.7093 23.2779 18.9689 25.1 19.5442 25.8588C20.7215 27.7467 21.8152 28.1517 22.2149 28.1183C22.9125 27.9844 22.8447 25.5854 22.7236 24.4027C22.9053 21.5741 22.3966 20.1347 22.1604 19.9841C21.9715 19.8636 21.3065 18.9073 20.9977 18.4443C20.8523 17.8953 21.2036 17.7581 21.3973 17.7581H28.0286C28.6536 17.8116 28.8946 18.4164 28.937 18.7121V26.1935C29.155 26.7693 29.5487 26.7905 29.7182 26.7291C30.8374 26.4881 32.3526 24.4752 32.9703 23.4989C34.3947 21.6243 35.5622 19.2477 35.968 18.2937C36.2151 17.8652 36.5796 17.7581 36.731 17.7581H40.6916C41.3893 17.5974 41.8059 17.9589 41.9271 18.1598C42.2468 18.5614 42.133 18.9743 42.0361 19.1305C41.5564 20.9515 38.6992 24.8322 37.3306 26.545C36.6911 27.2546 36.834 27.8003 36.9854 27.9844L39.2382 30.2104C41.2294 32.1251 42.3449 33.7307 42.6538 34.2942L42.9445 34.88C43.1334 35.737 42.4055 36.1074 42.0179 36.1855H37.0944C36.6293 36.1186 36.3798 35.8787 36.3132 35.7671C35.8626 34.8432 34.6236 33.6973 34.0604 33.2398C32.2726 31.5259 31.2322 30.9078 30.9355 30.8129C29.9326 30.3979 29.5971 30.8855 29.5547 31.1811L29.4276 34.4783C28.9625 37.1161 24.4738 36.0237 22.2876 35.1478C18.7812 33.6415 17.1097 32.1184 14.112 27.817C11.7092 24.3691 10.0303 20.475 9.64272 18.8627C9.61365 17.9522 10.3452 17.6967 10.7146 17.6744C11.9743 17.6688 14.559 17.661 14.8206 17.6744Z" fill="black"/>
</svg>
