<svg width="159" height="79" viewBox="0 0 159 79" fill="none" xmlns="http://www.w3.org/2000/svg">
<path d="M19.0849 21.2668C19.7035 20.0135 21.5596 19.3869 22.1783 19.3869C25.1479 19.3869 26.7153 21.2668 27.1277 22.2067L29.2931 20.0135C31.7679 19.2616 33.0052 21.1623 33.3146 22.2067L31.7679 24.0866L27.1277 24.3999C27.1277 26.9064 24.653 29.8307 23.4156 30.9795L23.725 32.8594L32.0772 33.486L41.0481 32.8594C41.543 31.1048 46.6162 25.4443 49.091 22.8333C52.3081 18.3216 59.7117 15.7316 63.0113 15.0005V13.7472C60.0417 12.2433 59.7117 8.94309 59.9179 7.48098C60.6603 0.964054 64.7643 0.588078 66.7234 1.2147C67.8577 1.94577 70.1262 4.22251 70.1262 7.48098C70.1262 10.7394 67.8577 13.0162 66.7234 13.7472V15.0005C70.188 14.7498 71.6729 15.9404 71.9822 16.5671C74.7044 18.8229 79.3033 26.4887 81.2625 30.0395C84.0465 28.5774 90.2334 25.0892 92.7081 22.8333C95.1828 20.5775 100.545 17.9248 102.916 16.8804L103.844 13.7472L98.5856 12.8073C101.37 10.6141 101.37 6.54102 103.844 3.7212C105.824 1.46534 107.556 2.15463 108.175 2.78126C109 2.78126 110.835 2.96925 111.578 3.7212C112.32 4.47315 111.887 11.1363 111.578 14.3739L108.175 13.7472V18.1336C110.444 19.0736 115.228 22.144 116.218 26.9064C117.208 31.6688 120.961 37.0369 122.714 39.1256L129.21 38.8123H129.829C133.046 37.5591 140.037 34.1126 143.131 32.546C143.853 32.2327 145.049 31.4181 144.059 30.6662C143.069 29.9142 142.615 28.2641 142.512 27.533C142.512 17.7577 148.905 18.6558 152.102 20.3268C153.442 21.8934 155.195 25.9038 151.483 29.4129C147.771 32.922 147.874 34.2171 148.39 34.4259C152.597 35.4285 156.536 45.9141 157.979 51.0315C158.082 52.3892 157.855 54.854 156.123 53.8514C154.391 52.8488 151.895 46.9585 150.864 44.1387C150.122 41.6321 149.111 41.4233 148.699 41.6321L148.39 45.0786C148.39 46.8331 147.152 52.9114 146.533 55.7313C145.544 58.2378 145.09 68.2638 144.987 72.9635C145.482 72.9635 147.668 74.6345 148.699 75.47C149.936 76.9739 149.008 77.7676 148.39 77.9765C143.935 78.2272 140.759 76.4099 139.728 75.47C140.718 68.2011 139.934 62.4153 139.419 60.431C135.212 67.9505 130.448 73.1724 128.592 74.8434L122.096 75.1567C121.58 74.5301 120.734 73.0888 121.477 72.3369C122.405 71.3969 126.426 71.7102 127.354 69.8304C128.282 67.9505 130.757 64.8173 131.685 62.9375C132.428 61.4336 136.738 47.2718 138.8 40.3789L130.757 42.8854H121.786L117.765 40.6922L110.65 28.473C109.66 33.2353 109.413 40.9011 109.413 44.1387C109.165 45.6426 113.021 53.5381 114.981 57.2978L107.247 56.9845L107.866 65.444C109.413 65.9662 112.382 67.3239 111.887 68.5771C111.392 69.8304 107.144 69.7259 105.082 69.517C103.597 68.7651 103.329 60.5354 103.226 56.6712L100.132 56.9845C100.132 67.0105 97.4513 70.1437 96.1108 70.457H91.7801C90.7902 70.457 90.7489 69.2037 90.852 68.5771C91.347 67.8251 93.9454 65.9662 95.1828 65.1307L95.8015 55.7313C93.5742 55.4806 91.1614 54.7913 90.2334 54.478C90.852 52.5981 96.4202 46.0185 97.0389 44.1387C97.5338 42.6347 98.2762 33.0682 98.5856 28.473C98.833 25.9665 98.2762 25.7576 97.9669 25.9665C86.8306 33.486 80.5407 34.3215 78.7877 33.7993L69.1982 22.52L68.2701 29.4129L67.3421 46.0185C65.8573 46.0185 65.4861 46.6452 65.4861 46.9585C67.2184 49.9663 69.3013 60.9531 70.1262 66.0706C70.3736 66.8225 73.1165 68.0549 74.457 68.5771V70.457H68.5795C66.5997 71.2089 62.3926 55.3135 60.5366 47.2718H59.6086C55.8965 68.3265 53.5249 71.5014 52.8031 70.457C51.5657 71.2089 46.9256 70.9792 44.7602 70.7703C44.7602 69.0157 45.5851 68.1594 45.9976 67.9505C47.2349 67.9505 48.7816 66.6972 49.4003 66.0706C51.1326 64.0654 52.8031 52.0759 53.4217 46.3318L51.5657 46.0185C51.2564 45.3919 52.4937 42.5721 53.7311 39.7523C54.721 37.4964 55.7934 27.9508 56.2058 23.46C51.7513 29.2249 44.8633 34.4259 41.9761 36.3058L26.1997 40.0656C24.9624 47.0838 28.5713 59.9088 30.5305 65.444L24.653 67.0105C24.7561 68.2638 25.148 70.7076 25.8904 70.457C26.6328 70.2063 29.0869 70.5614 30.2212 70.7703V72.3369C29.2931 72.5457 26.9421 72.9635 24.9624 72.9635C22.9826 72.9635 22.4876 68.786 22.4876 66.6972H19.3942C18.4043 70.2063 16.3008 73.1724 15.3728 74.2168C13.6198 74.2168 10.2377 73.9661 10.7327 72.9635C11.2276 71.9609 13.2074 72.128 14.1354 72.3369L16.3008 66.0706L9.49529 65.444V64.504C12.7124 61.2456 15.9914 46.6452 17.2288 39.7523C13.5167 41.6321 5.72133 45.5172 4.23649 46.0185C2.38044 46.6452 1.76175 46.9585 1.14306 46.3318C0.648117 45.8305 1.55552 44.6608 2.07109 44.1387L20.0129 32.5461L20.3222 30.3529C17.5382 28.1597 17.5382 26.5931 17.2288 26.2798C16.9195 25.9665 15.6821 27.533 15.0634 27.8463C14.4447 28.1597 13.5167 26.9064 13.2074 26.5931C12.898 26.2798 13.2074 24.7132 14.1354 25.0265C15.0634 25.3398 16.6101 25.0265 17.5382 24.3999C18.4662 23.7733 18.4662 22.52 19.0849 21.2668Z" fill="white" stroke="black" stroke-width="0.3"/>
</svg>
